<svg xmlns="http://www.w3.org/2000/svg" width="200" height="200"><g fill="#09B7ED" fill-rule="evenodd"><path d="M12.523 80.56h20.134v19.577H12.523V80.56zm24.71 0h20.134v19.577H37.233V80.56zm0-25.093h20.134v19.566H37.233V55.467zm24.7 25.093h20.144v19.577H61.933V80.56zm0-25.093h20.144v19.566H61.933V55.467zm24.71 25.093h20.14v19.577h-20.14V80.56zm0-25.093h20.14v19.566h-20.14V55.467zM111.35 80.56h20.14v19.577h-20.14V80.56zm-24.707-50.2h20.14v19.573h-20.14V30.36zM40.647 128.4c-3.1 0-5.614 2.443-5.614 5.453 0 3.007 2.517 5.45 5.614 5.45 3.093 0 5.61-2.44 5.61-5.446 0-3.01-2.517-5.457-5.61-5.457z"/><path d="M196.35 90.687c-6.767-3.794-15.767-4.314-23.433-2.12-.944-7.924-6.3-14.867-12.667-19.844l-2.527-1.976-2.126 2.386c-4.267 4.794-5.534 12.767-4.957 18.887.433 4.5 1.883 9.073 4.733 12.687-2.166 1.266-4.626 2.273-6.816 3-4.467 1.466-9.317 2.283-14.034 2.283H2.043l-.283 2.967c-.95 9.906.447 19.823 4.66 28.866l1.813 3.594.207.333c12.457 20.567 34.333 29.227 58.173 29.227 46.154 0 84.217-20.034 101.7-62.36 11.684.593 23.634-2.767 29.35-13.61l1.457-2.767-2.773-1.553h.003zm-155.7 53.52c-5.88 0-10.66-4.647-10.66-10.354 0-5.71 4.78-10.356 10.657-10.356 5.876 0 10.656 4.643 10.656 10.353 0 5.707-4.776 10.353-10.653 10.353v.004z"/></g></svg>