<svg xmlns="http://www.w3.org/2000/svg" width="200" height="200"><g fill="none" fill-rule="evenodd"><path fill="#66A2C9" d="M75.864 150.078s-7.564 5.036 5.382 6.74c15.684 2.048 23.7 1.755 40.984-1.99 0 0 4.544 3.262 10.89 6.087-38.746 19.012-87.689-1.101-57.256-10.837m-5.407-21.997s-8.116 7.335 4.279 8.9c16.028 2.019 28.687 2.184 50.59-2.965 0 0 3.03 3.75 7.794 5.8-44.818 16-94.738 1.262-62.663-11.735"/><path fill="#FF7B00" d="M111.27 91.613c9.176 10.984-2.41 20.867-2.41 20.867s23.298-12.504 12.598-28.163c-9.993-14.603-17.656-21.859 23.83-46.876 0 0-65.12 16.91-34.017 54.172"/><path fill="#66A2C9" d="M159.828 170.288s5.446 4.101-5.998 7.275c-21.76 6.025-90.567 7.845-109.681.24-6.871-2.733 6.014-6.525 10.067-7.32 4.228-.838 6.643-.682 6.643-.682-7.641-4.92-49.39 9.662-21.206 13.838 76.862 11.394 140.112-5.13 120.175-13.351M76.14 106.275s-35.162 9.182-12.452 12.517c9.589 1.411 28.704 1.092 46.51-.548 14.55-1.35 29.162-4.22 29.162-4.22s-5.13 2.417-8.843 5.204c-35.706 10.325-104.683 5.521-84.826-5.04 16.794-8.926 30.449-7.913 30.449-7.913m63.938 36.472c35.73-18.547 19.21-36.37 7.68-33.968-2.827.587-4.087 1.096-4.087 1.096s1.05-1.641 3.053-2.352c22.811-8.011 40.354 23.628-7.364 36.159 0 0 .553-.494.718-.935"/><path fill="#FF7B00" d="M115.935 0s19.553 20.128-18.546 51.08c-30.551 24.829-6.967 38.986-.012 55.16-17.834-16.557-30.921-31.133-22.141-44.7C88.123 41.629 123.824 31.974 115.935 0"/><path fill="#66A2C9" d="M81.178 199.379c34.389 2.278 87.197-1.264 88.448-18.1 0 0-2.405 6.383-28.421 11.451-29.352 5.715-65.553 5.048-87.024 1.385 0 0 4.395 3.764 26.997 5.264"/></g></svg>