<svg xmlns="http://www.w3.org/2000/svg" width="200" height="200"><g fill="none" fill-rule="evenodd"><path fill="#4586B7" d="M99.16 20.001c-6.524.03-12.754.587-18.235 1.556-16.148 2.851-19.08 8.819-19.08 19.824v14.535h38.16v4.845h-52.48c-11.09 0-20.801 6.662-23.839 19.335-3.503 14.527-3.659 23.592 0 38.76 2.713 11.29 9.19 19.335 20.28 19.335h13.12v-17.424c0-12.588 10.898-23.691 23.839-23.691h38.114c10.61 0 19.08-8.731 19.08-19.38V41.381c0-10.335-8.724-18.099-19.08-19.824-6.555-1.09-13.356-1.586-19.88-1.556zm-20.637 11.69c3.942 0 7.16 3.27 7.16 7.29 0 4.006-3.218 7.245-7.16 7.245-3.955 0-7.16-3.24-7.16-7.245 0-4.02 3.205-7.29 7.16-7.29"/><path fill="#FFD43B" d="M142.924 60.871v16.94c0 13.133-11.14 24.186-23.844 24.186H80.955c-10.443 0-19.084 8.933-19.084 19.385v36.325c0 10.338 8.995 16.418 19.084 19.384 12.082 3.551 23.668 4.193 38.125 0 9.609-2.78 19.084-8.376 19.084-19.384v-14.54H100.04v-4.845h57.208c11.093 0 15.227-7.734 19.084-19.34 3.985-11.95 3.816-23.442 0-38.77-2.74-11.037-7.977-19.341-19.084-19.341zm-21.442 91.99c3.956 0 7.162 3.24 7.162 7.246 0 4.022-3.206 7.292-7.162 7.292-3.943 0-7.162-3.27-7.162-7.292 0-4.006 3.22-7.247 7.162-7.247z"/></g></svg>